<svg xmlns="http://www.w3.org/2000/svg" width="32" height="58" viewBox="0 0 32 58">
    <path fill="#262626" d="M7.762 46.574c-.877-.01-1.665-.195-2.388-.56-2.03-1.025-3.4-2.905-3.184-5.139.133-1.382 1.264-3.076 2.082-4.938.65-1.48 1.827-3.071 3.542-4.792-1.089.337-2.108.406-3.108.072C1.28 30.07 0 27.003 0 23.187c0-3.31 2.141-6.895 6.37-11.097 2.811-2.793 6.18-6.878 7.718-7.742.63-.355 2.677-1.804 6.14-4.348 3.33 4.789 4.775 6.963 4.335 6.521-.723-.724.478-.999 0-.724s-1.664.435-2.529.724c-.872.292-1.658.61-3.612 2.174-1.954 1.564-5.96 6.521-7.476 8.028-1.517 1.507-2.769 2.938-3.636 4.181-.795 1.138-3.337 4.531-3.337 4.82 0 1.276.285.336 1.445.724 1.16.388 3.005-1.24 6.893-3.26l2.72 2.06c3.67-2.593 8.247-5.439 13.753-8.582L32 22.333C19 29.756 7.54 38.103 6.163 41.237c-.136.31 1.19.09 1.084.363 1.247-.512 5.292-2.85 7.224-3.986l1.143 1.652c.135-.115.268-.233.402-.354.121-.11.382-.465.708-1.038.408-.715.84-1.145 1.337-2.342 3.232-.113 5.083.129 5.555.725.378.478.655.743.361 1.45-1.265 3.04-2.371 4.927-3.61 6.05-1.239 1.125-2.158 1.82-4.063 3.048-1.905 1.228-2.085 1.339-2.195 1.439.036.237-3.775 1.684-3.497 2.143.62 1.022 8.03 5.855 9.753 7.246L13.993 58c-4.77-3.847-7.092-7.577-6.231-11.426z"/>
</svg>
